<svg xmlns="http://www.w3.org/2000/svg" viewBox="0 0 100 100" enable-background="new 0 0 100 100"><style type="text/css">.st0{fill:#BB9D6E;}</style><path class="st0" d="M22.1 89.8c1 .1 1.8-.6 2-1.5-.1 1 .7 1.9 1.7 2 1 .1 2-.7 2-1.7.1-1.1.4-3.9.5-4.9h.1c6.7.5 14.3-4.4 15.8-15 .6-4.6-.5-9.1-3.3-12.8-1.9-2.5-4.4-4.4-7.2-5.6.2-.4.4-.9.4-1.3.2-1.2-.1-2.4-.9-3.4-.7-1-1.8-1.6-3-1.8-2.3-.3-4.4 1.1-5 3.3-.1.2-.1.4-.1.6-.1.5 0 .9 0 1.4l-1.5.2-1.2-3.3c1.2-.8 2.1-2.1 2.5-3.6.2-.7.3-1.5.2-2.2l-.5-8.2c-.1-.8-.2-1.5-.5-2.2l4.4-3.7.3.2c1.6.8 3.4.9 5 .3l7.9-2.7c2-.7 3.6-2.3 4.2-4.4l3.9-.1c.6 1.6 1.9 2.9 3.6 3.6l7.7 3.2c1.6.7 3.4.7 4.9 0l1.7 2.2c-.4.5-.6 1.2-.8 1.8-.2.9-.3 1.8-.2 2.7l1.1 8.2c.3 2.5 2 4.4 4.2 5.3v2.7c-5.8.2-11.3 3.2-14.5 8.6-1 1.7-1.7 3.4-2.2 5-2.1 7.2.7 13.5 5.3 16.5l.1.1c-.5.9-2 3.3-2.6 4.2-.6.9-.3 2 .6 2.6.9.6 2 .3 2.6-.6-.1.1-.1.2-.2.4-.2.8.1 1.6.8 2.1.9.6 2 .3 2.6-.6.2-.4 2.1-3.3 2.7-4.3h.1c6 3 14.9 1.3 20.3-8 4-7 2.7-15.6-2.8-21 .3-.3.7-.7.9-1.1.2-.3.3-.7.4-1 .6-2-.3-4.2-2.1-5.2-2.2-1.3-5-.5-6.3 1.7-.2.3-.3.7-.4 1 0 .1 0 .2-.1.3-.5-.1-1-.2-1.4-.3l.1-2.8c2.3-.5 4.2-2.3 4.9-4.6.2-.9.3-1.8.2-2.7l-1.1-8.2c-.5-3.6-3.8-6.1-7.4-5.6-.6.1-1.2.3-1.7.5l-1.8-2.3c.3-.4.5-.8.7-1.2 1.4-3.4-.3-7.2-3.6-8.6l-7.7-3.2c-1.6-.7-3.4-.7-5 0s-2.9 1.9-3.5 3.6c-.1.2-.2.5-.2.7l-.1.5-3.6.1v-.1c-.6-1.7-1.7-3-3.3-3.8-1.6-.8-3.4-.9-5-.3l-7.9 2.7c-2 .7-3.6 2.3-4.2 4.4-.4 1.3-.3 2.6.1 3.9.1.3.2.6.4.9l-4.3 3.5c-1.2-.8-2.6-1.1-4-1.1-2.8.2-5.1 2.1-5.9 4.8-.2.7-.3 1.5-.2 2.2l.5 8.3c.2 3.5 3.2 6.2 6.8 6.1l1.2 3.2c-4.6 2-8.2 6-9.7 11.1-.2.8-.4 1.5-.5 2.3-1.5 10.6 4.4 17.5 11 18.8h.1c-.1 1.2-.5 4.7-.5 5.1-.3 1.1.4 2 1.5 2.1zm62.2-16.6c-3.2 5.5-9.5 9.5-15.3 6.5-1.8-.9-3.9-.4-4.8 1.1.9-1.6.3-3.7-1.4-4.8-5.5-3.6-5.1-11-1.9-16.5 3.8-6.5 12.1-8.7 18.6-4.9 6.3 3.8 8.5 12.1 4.8 18.6zm-3.4-22.9c.2-.4.7-.5 1.1-.3.3.2.5.6.4.9 0 .1 0 .1-.1.2-.2.4-.7.5-1.1.3-.3-.2-.5-.7-.3-1.1zm-4.8-18.7l1.1 8.2c.1.4 0 .8-.1 1.1-.2.6-.6 1.2-1.1 1.6l.1-2.7c0-1-.8-1.9-1.8-1.9-.9 0-1.6.6-1.9 1.4 0 .1-.1.3-.1.5l-.1 2.2c-.3-.4-.5-.9-.6-1.4l-1.1-8.2v-.6l1.3 1.6c.6.8 1.8 1 2.6.3.8-.6 1-1.8.3-2.6l-1.5-1.9c1.4 0 2.7 1 2.9 2.4zm-21.3-17.3c.7-.3 1.5-.3 2.2 0l7.7 3.2c1.2.5 1.9 1.8 1.7 3l-.9-1.1c-.6-.8-1.8-1-2.6-.3-.3.3-.5.6-.6 1-.2.6-.1 1.2.3 1.7l.9 1.2c-.3 0-.6-.1-.9-.2l-7.7-3.2-.5-.3h1.4c1 0 1.9-.9 1.8-1.9 0-1-.9-1.9-1.9-1.8h-2.2c.3-.6.8-1 1.3-1.3zm-24 3.4l7.9-2.7c.7-.2 1.5-.2 2.1.1.3.2.6.4.8.6h-1.5c-.8 0-1.6.6-1.8 1.4l-.1.6c0 1 .9 1.9 1.9 1.8h1.5c-.3.4-.7.7-1.2.8l-7.8 2.7c-.2.1-.4.1-.6.1l1.4-1.1c.8-.7.9-1.8.3-2.6-.7-.8-1.8-.9-2.6-.3l-2.1 1.7c-.3-1.3.5-2.7 1.8-3.1zm-15 23.2l-.5-8.3c-.1-1.5 1.1-2.9 2.6-3h.5l-1.3 1c-.3.3-.5.6-.6.9-.2.6-.1 1.2.4 1.7.7.8 1.8.9 2.6.3l1.4-1.2.5 8.1c0 .3 0 .6-.1 1-.1.3-.2.5-.3.7l-.7-1.8c-.4-1-1.4-1.5-2.4-1.1-.6.2-1 .7-1.2 1.3-.1.4-.1.8 0 1.2l.6 1.5c-.8-.5-1.5-1.3-1.5-2.3zm13.1 7.9c-.1-.1-.2-.3-.2-.6.1-.5.5-.8.9-.7.3 0 .5.2.5.3.1.1.2.3.2.6v.1c-.1.4-.5.6-.9.6-.3 0-.5-.2-.5-.3zm-15.4 15.6c1-7.4 7.9-12.6 15.3-11.5 3.6.5 6.8 2.4 8.9 5.3 2.2 2.9 3.1 6.5 2.6 10.1-1.2 8.3-6.8 12.2-11.7 11.8-2-.2-3.7 1.1-4.1 2.9.2-1.8-1.1-3.5-3.1-3.9-6.3-1.4-8.8-8.4-7.9-14.7z" id="Your_Icon_2_"/></svg>