<svg xmlns="http://www.w3.org/2000/svg" viewBox="0 0 100 100" enable-background="new 0 0 100 100"><style type="text/css">.st0{fill:#BB9D6E;}</style><path class="st0" d="M73.7 50c4.4-1.3 9-3.1 13.4-5.5 7.1-4.1 10.7.2 8.1 6.6-2.2 6.1-14.1 17.4-24.5 20-4-2.8-11.8-4.7-20.7-4.7-9 0-16.8 1.9-20.7 4.8-10.4-2.7-22.3-14-24.5-20.1-2.6-6.5 1-10.7 8.1-6.6 4.4 2.4 9 4.2 13.4 5.5 9.5 2.9 18.2 3.6 22.7 3.6h2.5c4.5-.1 13-.8 22.2-3.6z"/><path class="st0" d="M60.9 21.3c3.7 1.8 9.7 19.2 12 26.3-8.9 2.6-17.1 3.3-21.5 3.3l-2.4.1c-4.4 0-12.8-.7-22-3.3 2.3-7.1 8.3-24.5 12-26.3 4.2-2.1 7.9 1.4 10.8 1.7h-1.2.7.7c3.1-.4 6.7-3.9 10.9-1.8zm-1.4 13.5c0-.8-.6-1.4-1.4-1.4-.7 0-1.3.5-1.4 1.2l-4.3-.6-1.9-3.8c.5-.2.9-.7.9-1.3 0-.8-.6-1.4-1.4-1.4-.8 0-1.4.6-1.4 1.4 0 .6.4 1.1.9 1.3l-1.9 3.8-4.3.6c-.1-.7-.7-1.2-1.4-1.2-.8 0-1.4.6-1.4 1.4 0 .8.6 1.4 1.4 1.4.5 0 .9-.2 1.1-.6l3.1 3-.8 4.4c-.2-.1-.4-.1-.6-.1-.8 0-1.4.6-1.4 1.4s.6 1.4 1.4 1.4c.8 0 1.4-.6 1.4-1.4 0-.3-.1-.6-.2-.8l4.1-2.1 4.1 2.1c-.2.2-.2.5-.2.8 0 .8.6 1.4 1.4 1.4.8 0 1.4-.6 1.4-1.4s-.6-1.4-1.4-1.4c-.2 0-.4 0-.5.1l-.8-4.5 3.1-3c.3.4.7.6 1.1.6.7.1 1.3-.6 1.3-1.3z" id="XMLID_1_"/></svg>